<svg role="img" viewBox="0 0 24 24" fill="#1DB954" xmlns="http://www.w3.org/2000/svg">
  <title>Spotify</title>
  <path d="M12 0C5.37258 0 0 5.37258 0 12C0 18.6274 5.37258 24 12 24C18.6274 24 24 18.6274 24 12C24 5.37258 18.6274 0 12 0ZM17.1 17.253C16.8375 17.7 16.284 17.841 15.837 17.578C13.203 16.053 9.753 15.675 5.625 16.463C5.1375 16.553 4.668 16.2375 4.578 15.75C4.488 15.2625 4.803 14.793 5.29125 14.703C9.9 13.8315 13.7175 14.262 16.698 16.065C17.145 16.3275 17.3625 16.806 17.1 17.253ZM18.4875 14.2035C18.1875 14.6715 17.565 14.8215 17.097 14.5215C13.9725 12.5625 8.7375 12.2625 5.115 13.293C4.59 13.443 4.05 13.1325 3.9 12.6075C3.75 12.0825 4.06 11.5425 4.5855 11.3925C8.7375 10.2375 14.475 10.575 17.91 12.825C18.378 13.125 18.6285 13.7355 18.4875 14.2035ZM18.825 11.0625C15.258 8.91 8.3175 8.7375 4.74 9.8625C4.148 10.05 3.5025 9.72 3.315 9.1275C3.1275 8.535 3.4575 7.89 4.05 7.7025C8.2125 6.435 15.8625 6.6375 19.9875 9.33C20.5275 9.675 20.6925 10.38 20.3475 10.92C20.0025 11.46 19.2975 11.625 18.825 11.0625Z"/>
</svg>
